# xmcd
#
# Track frame offsets:
#	150
#	9445
#	21365
#	32675
#	44250
#	57202
#	73927
#	86845
#	100060
#	111547
#	123362
#	133712
#	146635
#	162100
#	174217
#	191380
#	203562
#	218350
#	233407
#	248940
#	260005
#	283805
#
# Disc length: 4440 seconds
# Revision: 0
# Processed by: cddbd v1.5.2PL0 Copyright (c) Steve Scherf et al.
# Submitted via: dBpowerAMP V12.0
#
DISCID=35115616
DTITLE=Jussi Raittinen - Muistan VIel‰ Vuonna 76
DYEAR=2003
DGENRE=Rock and Roll and Country
TTITLE0=Nashville, Tennesee
TTITLE1=Kun Kyyneleet Saa Vallan
TTITLE2=T‰hti Hittilistojen
TTITLE3=Ronski-Antti Aikoo
TTITLE4=On Vannomatta Paras
TTITLE5=Virtuoosi
TTITLE6=Onnestain Tuun Juovuksiin
TTITLE7=Marjapussi-Jussi
TTITLE8=Meit‰ on Niin Moneen Junaan
TTITLE9=Mit‰ Onni On
TTITLE10=Tulkaa Mukaan
TTITLE11=Heaven Help the Fatman
TTITLE12=Sunnuntailapsi
TTITLE13=Mannaa Sataa
TTITLE14=Oi Kuuskytviis
TTITLE15=Viis, Viis, Satanen Siis
TTITLE16=Voi Viinaa Hirve‰‰
TTITLE17=Mulla on Aikaa Vain
TTITLE18=Pitk‰ Musta Auto
TTITLE19=Menn‰‰n Melomaan
TTITLE20=Alla Palmupuiden
TTITLE21=DATA
EXTD=
EXTT0=
EXTT1=
EXTT2=
EXTT3=
EXTT4=
EXTT5=
EXTT6=
EXTT7=
EXTT8=
EXTT9=
EXTT10=
EXTT11=
EXTT12=
EXTT13=
EXTT14=
EXTT15=
EXTT16=
EXTT17=
EXTT18=
EXTT19=
EXTT20=
EXTT21=
PLAYORDER=
